<svg width="48" height="48" viewBox="0 0 48 48" fill="none" xmlns="http://www.w3.org/2000/svg">
<g clip-path="url(#clip0_1_182)">
<g filter="url(#filter0_i_1_182)">
<circle cx="24" cy="24" r="24" fill="url(#paint0_radial_1_182)"/>
</g>
<path d="M43.0394 6.32209C43.3178 5.35914 44.6822 5.35914 44.9606 6.32209L45.056 6.65187C45.2052 7.16785 45.7354 7.4738 46.2568 7.34482L46.5759 7.26588C47.5543 7.02384 48.2357 8.21739 47.5299 8.93689L47.3333 9.13733C46.9518 9.52624 46.9518 10.149 47.3333 10.5379L47.5299 10.7383C48.2357 11.4578 47.5543 12.6514 46.5759 12.4093L46.3468 12.3527C45.7905 12.215 45.2325 12.5722 45.1246 13.1351L44.9821 13.8781C44.7746 14.9604 43.2254 14.9604 43.0179 13.8781L42.8754 13.1351C42.7675 12.5722 42.2095 12.215 41.6532 12.3527L41.4241 12.4093C40.4457 12.6514 39.7643 11.4578 40.4701 10.7383L40.6667 10.5379C41.0482 10.149 41.0482 9.52624 40.6667 9.13733L40.4701 8.93689C39.7643 8.21739 40.4457 7.02384 41.4241 7.26588L41.7432 7.34482C42.2646 7.4738 42.7948 7.16785 42.944 6.65187L43.0394 6.32209Z" fill="url(#paint1_linear_1_182)"/>
<path d="M14.2983 22.7248L12.5 22.5C12.5 26.6421 15.8579 30 20 30H21C25.1421 30 28.5 26.6421 28.5 22.5L26.7017 22.7248C22.5833 23.2396 18.4167 23.2396 14.2983 22.7248Z" fill="#F72859" stroke="#F72859" stroke-width="1.5" stroke-linecap="round"/>
<path d="M8 15V15C9.28686 11.8748 13.7131 11.8748 15 15V15" stroke="#232333" stroke-width="1.5" stroke-linecap="round"/>
<path d="M25 15V15C26.3869 12.028 30.6131 12.028 32 15V15" stroke="#232333" stroke-width="1.5" stroke-linecap="round"/>
<g filter="url(#filter1_f_1_182)">
<rect x="27" y="19" width="5" height="5" rx="2.5" fill="#F72859"/>
</g>
<g filter="url(#filter2_f_1_182)">
<rect x="8" y="19" width="5" height="5" rx="2.5" fill="#F72859"/>
</g>
</g>
<defs>
<filter id="filter0_i_1_182" x="-1" y="0" width="49" height="50" filterUnits="userSpaceOnUse" color-interpolation-filters="sRGB">
<feFlood flood-opacity="0" result="BackgroundImageFix"/>
<feBlend mode="normal" in="SourceGraphic" in2="BackgroundImageFix" result="shape"/>
<feColorMatrix in="SourceAlpha" type="matrix" values="0 0 0 0 0 0 0 0 0 0 0 0 0 0 0 0 0 0 127 0" result="hardAlpha"/>
<feOffset dx="-1" dy="2"/>
<feGaussianBlur stdDeviation="1"/>
<feComposite in2="hardAlpha" operator="arithmetic" k2="-1" k3="1"/>
<feColorMatrix type="matrix" values="0 0 0 0 1 0 0 0 0 0.980183 0 0 0 0 0.920833 0 0 0 0.6 0"/>
<feBlend mode="normal" in2="shape" result="effect1_innerShadow_1_182"/>
</filter>
<filter id="filter1_f_1_182" x="21" y="13" width="17" height="17" filterUnits="userSpaceOnUse" color-interpolation-filters="sRGB">
<feFlood flood-opacity="0" result="BackgroundImageFix"/>
<feBlend mode="normal" in="SourceGraphic" in2="BackgroundImageFix" result="shape"/>
<feGaussianBlur stdDeviation="3" result="effect1_foregroundBlur_1_182"/>
</filter>
<filter id="filter2_f_1_182" x="2" y="13" width="17" height="17" filterUnits="userSpaceOnUse" color-interpolation-filters="sRGB">
<feFlood flood-opacity="0" result="BackgroundImageFix"/>
<feBlend mode="normal" in="SourceGraphic" in2="BackgroundImageFix" result="shape"/>
<feGaussianBlur stdDeviation="3" result="effect1_foregroundBlur_1_182"/>
</filter>
<radialGradient id="paint0_radial_1_182" cx="0" cy="0" r="1" gradientUnits="userSpaceOnUse" gradientTransform="translate(39) rotate(125.293) scale(54.5206)">
<stop stop-color="#FFFAEB"/>
<stop offset="0.21875" stop-color="#F5D163"/>
<stop offset="0.494792" stop-color="#FAD967"/>
<stop offset="0.791667" stop-color="#F2B456"/>
<stop offset="1" stop-color="#F78228"/>
</radialGradient>
<linearGradient id="paint1_linear_1_182" x1="44" y1="5.5" x2="44" y2="14.5" gradientUnits="userSpaceOnUse">
<stop stop-color="white"/>
<stop offset="1" stop-color="#FFFAE8"/>
</linearGradient>
<clipPath id="clip0_1_182">
<rect width="48" height="48" fill="white"/>
</clipPath>
</defs>
</svg>
